<!-- <?xml version="1.0" encoding="UTF-8"?>
<svg xmlns="http://www.w3.org/2000/svg" id="Layer_1" data-name="Layer 1" viewBox="0 0 24 24" width="512" height="512"><path d="M22.916.691A2.992,2.992,0,0,0,20.447.053L8.448,2.3A3,3,0,0,0,6,5.251V16.556A3.959,3.959,0,0,0,4,16a4,4,0,1,0,4,4V9.42L22,6.8v6.761A3.959,3.959,0,0,0,20,13a4,4,0,1,0,4,4V3A3,3,0,0,0,22.916.691ZM4,22a2,2,0,1,1,2-2A2,2,0,0,1,4,22ZM8,7.386V5.251a1,1,0,0,1,.815-.983l12-2.25A1,1,0,0,1,22,3v1.76ZM20,19a2,2,0,1,1,2-2A2,2,0,0,1,20,19Z" fill="#FFFFFF"/></svg> -->

<svg xmlns="http://www.w3.org/2000/svg" width="100" height="100" viewBox="0 0 100 100" id="music"><g><path d="M88.3 11.5c-.5-.4-1.1-.5-1.7-.4l-48 10c-.9.2-1.6 1-1.6 2v40.8c-2.7-3-6.6-4.8-11-4.8-8.3 0-15 6.7-15 15s6.7 15 15 15 15-6.7 15-15V38.6l44-9.2v24.4c-2.7-3-6.7-4.8-11-4.8-8.3 0-15 6.7-15 15s6.7 15 15 15 15-6.7 15-15V13c0-.6-.3-1.2-.7-1.5zM26 85c-6.1 0-11-4.9-11-11s4.9-11 11-11 11 4.9 11 11-4.9 11-11 11zm48-10c-6.1 0-11-4.9-11-11s4.9-11 11-11 11 4.9 11 11-4.9 11-11 11zm11-49.6l-44 9.2v-9.9l44-9.2v9.9z" fill="#FFFFFF"></path></g><g><path fill="#FFFFFF" d="M664-650v1684h-1784V-650H664m8-8h-1800v1700H672V-658z"></path></g></svg>